# 3ds Max Wavefront OBJ Exporter v0.97b - (c)2007 guruware
# File Created: 29.05.2017 17:10:33

mtllib Bedtable.mtl

#
# object Bedtable
#

v  32.4976 65.8615 -33.3567
v  29.0449 63.0107 34.4166
v  -30.2572 61.1132 34.3761
v  -30.3048 63.9640 -30.3166
v  31.3483 72.2305 -32.1438
v  -29.6035 70.1612 -29.1129
v  -29.5447 67.0370 33.7221
v  27.9068 69.1063 33.7719
v  28.8613 68.1765 34.6515
v  -30.4322 66.0379 34.6000
v  32.3012 71.3894 -33.1054
v  -30.4926 69.2508 -30.0762
v  22.3965 65.9384 -30.5230
v  22.0715 49.7151 -29.6834
v  -18.9218 51.8744 -26.6171
v  -19.7217 64.6373 -27.4704
v  18.9403 63.3234 31.1440
v  -19.6776 62.0224 31.1159
v  -18.8823 50.0008 30.6235
v  18.8532 47.8414 30.6379
v  -16.1970 -0.0000 19.2008
v  -17.4934 -0.0000 26.0626
v  -22.9831 -0.0000 25.8344
v  -23.3706 -0.0000 19.2008
v  -19.2710 61.7548 29.0618
v  -26.2286 61.5222 29.0568
v  -19.2761 62.0630 21.8588
v  -26.2337 61.8305 21.8538
v  -17.4949 -0.0000 -22.9410
v  -17.4949 -0.0000 -17.4044
v  -22.8410 -0.0000 -17.4044
v  -22.8410 -0.0000 -22.9410
v  -19.3057 63.8331 -17.4669
v  -26.2633 63.6006 -17.4719
v  -19.3109 64.1414 -24.6699
v  -26.2685 63.9088 -24.6749
v  24.6574 -0.0000 18.9126
v  24.2989 -0.0000 25.5275
v  18.4862 -0.0000 25.5275
v  18.4862 -0.0000 19.5077
v  25.7905 65.6560 29.1990
v  18.8332 65.4119 29.1936
v  25.7848 65.9796 21.9967
v  18.8276 65.7355 21.9912
v  28.0955 -0.0000 -26.5702
v  27.4242 -0.0000 -19.9366
v  21.6901 -0.0000 -19.9366
v  21.6901 -0.0000 -26.5702
v  29.2524 67.8376 -20.4058
v  22.2952 67.5935 -20.4113
v  29.2468 68.1612 -27.6081
v  22.2895 67.9171 -27.6136
v  -6.2949 55.1005 32.7861
v  -5.5606 54.8461 35.6377
v  -4.7840 55.9304 35.2750
v  -5.4343 56.1529 32.8376
v  -3.6501 55.5877 34.5878
v  -4.1657 55.7484 32.8134
v  -3.7249 54.2898 34.5271
v  -4.2413 54.4462 32.7497
v  -4.9082 53.8324 35.1787
v  -5.5599 54.0454 32.7346
v  -3.5128 54.6615 37.6771
v  -3.0398 55.7693 37.0120
v  -2.3917 55.4726 35.8408
v  -2.4647 54.1779 35.7823
v  -3.1594 53.6786 36.9206
v  -0.8011 54.5919 38.4083
v  -0.6388 55.7060 37.6593
v  -0.4880 55.4228 36.3540
v  -0.5581 54.1298 36.2965
v  -0.7529 53.6185 37.5697
v  2.9708 54.5853 38.4078
v  2.9162 55.6991 37.6587
v  2.7251 55.4169 36.3536
v  2.6596 54.1245 36.2961
v  2.8107 53.6130 37.5692
v  5.6829 54.6455 37.6758
v  5.3169 55.7533 37.0108
v  4.6287 55.4596 35.8398
v  4.5661 54.1664 35.7814
v  5.2174 53.6655 36.9195
v  7.7306 54.8230 35.6359
v  7.0617 55.9077 35.2732
v  5.8871 55.5701 34.5864
v  5.8261 54.2742 34.5259
v  6.9661 53.8139 35.1772
v  8.4650 55.0748 32.7841
v  7.7121 56.1277 32.8356
v  6.4028 55.7288 32.8118
v  6.3426 54.4289 32.7484
v  7.6181 54.0248 32.7330
v  -5.5738 56.6471 32.8640
v  -6.8371 55.1014 32.7862
v  -3.7103 56.0527 32.8291
v  -3.8204 54.1402 32.7356
v  -5.7585 53.5516 32.7127
v  9.0071 55.0739 32.7840
v  7.9003 56.6201 32.8619
v  5.9783 56.0343 32.8276
v  5.8891 54.1248 32.7344
v  7.7627 53.5316 32.7112
v  -5.5738 56.6885 32.2613
v  -6.8371 55.1416 32.1826
v  -3.7103 56.0936 32.2260
v  -3.8204 54.1796 32.1315
v  -5.7585 53.5905 32.1082
v  9.0071 55.1140 32.1804
v  7.9003 56.6615 32.2592
v  5.9783 56.0752 32.2246
v  5.8891 54.1642 32.1303
v  7.7627 53.5705 32.1066
v  14.9268 62.5262 32.4911
v  -15.6266 61.4968 32.4689
v  -16.8272 61.2146 32.4581
v  -17.5290 60.4658 32.4279
v  -17.7320 59.2503 32.3783
v  -15.2810 50.4368 32.0231
v  -16.4959 50.7458 32.0325
v  -17.2433 51.5107 32.0619
v  -17.5234 52.7315 32.1113
v  17.4036 50.7810 32.1063
v  17.1930 49.5865 32.0668
v  16.4873 48.9022 32.0428
v  15.2863 48.7281 32.0345
v  16.1413 62.3253 32.4841
v  16.8848 61.6249 32.4609
v  17.1573 60.4251 32.4216
v  -15.2810 50.4368 29.9940
v  15.2863 48.7281 30.0054
v  17.4036 50.7810 30.0773
v  17.1573 60.4251 30.3926
v  14.9268 62.5262 30.4621
v  -15.6266 61.4968 30.4399
v  -17.7320 59.2503 30.3493
v  -17.5234 52.7315 30.0822
v  -16.4959 50.7458 30.0035
v  17.1930 49.5865 30.0377
v  16.1413 62.3253 30.4551
v  -17.5290 60.4658 30.3989
v  -17.2433 51.5107 30.0329
v  16.4873 48.9022 30.0138
v  16.8848 61.6249 30.4319
v  -16.8272 61.2146 30.4291
# 144 vertices

vn 0.0299 -0.9987 -0.0423
vn 0.0320 -0.9987 -0.0404
vn 0.0301 -0.9987 -0.0421
vn 0.0280 -0.9986 -0.0440
vn -0.0336 0.9983 0.0477
vn -0.0314 0.9983 0.0497
vn -0.0338 0.9983 0.0474
vn -0.0360 0.9983 0.0454
vn 0.0008 -0.0454 0.9990
vn 0.9981 0.0331 0.0522
vn -0.0496 0.0436 -0.9978
vn -0.9994 -0.0355 -0.0008
vn -0.0757 -0.0541 -0.9957
vn -0.0771 -0.0500 -0.9958
vn -0.0716 -0.0662 -0.9952
vn -0.0699 -0.0709 -0.9950
vn -0.0017 -0.0343 0.9994
vn 0.0007 -0.0409 0.9992
vn -0.0000 -0.0390 0.9992
vn -0.0023 -0.0327 0.9995
vn -0.0563 -0.9979 -0.0331
vn -0.0571 -0.9978 -0.0326
vn -0.0558 -0.9979 -0.0335
vn -0.0551 -0.9979 -0.0339
vn 0.9985 -0.0090 0.0534
vn 0.9986 -0.0074 0.0530
vn 0.9984 -0.0157 0.0549
vn 0.9983 -0.0171 0.0552
vn -0.9979 -0.0655 -0.0021
vn -0.9978 -0.0659 -0.0022
vn -0.9980 -0.0631 -0.0015
vn -0.9980 -0.0626 -0.0014
vn -0.0000 -1.0000 0.0000
vn -0.0014 -0.0521 0.9986
vn 0.0010 -0.0523 0.9986
vn -0.0385 -0.0498 0.9980
vn -0.0415 -0.0497 0.9979
vn 0.9995 0.0296 0.0137
vn 0.9996 0.0287 0.0005
vn 0.9842 0.0400 0.1725
vn 0.9818 0.0408 0.1855
vn -0.0007 0.0428 -0.9991
vn -0.0001 0.0429 -0.9991
vn 0.0000 0.0429 -0.9991
vn -0.9989 -0.0469 0.0028
vn -0.9989 -0.0462 -0.0013
vn -0.9970 -0.0549 0.0537
vn -0.9968 -0.0556 0.0582
vn 0.0000 -1.0000 -0.0000
vn -0.0007 0.0010 1.0000
vn -0.0001 0.0010 1.0000
vn 0.0000 0.0010 1.0000
vn 0.9996 0.0284 0.0005
vn 0.9996 0.0283 0.0000
vn 0.9996 0.0283 -0.0000
vn 0.0015 -0.0269 -0.9996
vn 0.0016 -0.0269 -0.9996
vn 0.0001 -0.0271 -0.9996
vn 0.0000 -0.0271 -0.9996
vn -0.9986 -0.0536 -0.0015
vn -0.9986 -0.0536 -0.0016
vn -0.9986 -0.0537 -0.0001
vn -0.9986 -0.0537 -0.0000
vn 0.0011 -0.0560 0.9984
vn 0.0012 -0.0560 0.9984
vn 0.0001 -0.0558 0.9984
vn -0.0000 -0.0558 0.9984
vn 0.9997 -0.0224 0.0018
vn 0.9997 -0.0226 -0.0018
vn 0.9985 -0.0198 0.0503
vn 0.9983 -0.0196 0.0541
vn -0.0064 0.0462 -0.9989
vn -0.0009 0.0467 -0.9989
vn -0.0896 0.0387 -0.9952
vn -0.0959 0.0381 -0.9947
vn -1.0000 0.0052 0.0010
vn -1.0000 0.0053 0.0001
vn -1.0000 0.0053 -0.0000
vn -0.0010 0.0070 1.0000
vn -0.0001 0.0069 1.0000
vn 0.0000 0.0069 1.0000
vn 0.9996 -0.0262 0.0046
vn 0.9996 -0.0270 -0.0020
vn 0.9955 -0.0161 0.0938
vn 0.9948 -0.0153 0.1007
vn 0.0012 -0.0153 -0.9999
vn 0.0013 -0.0152 -0.9999
vn 0.0001 -0.0154 -0.9999
vn 0.0000 -0.0154 -0.9999
vn -1.0000 0.0089 0.0011
vn -1.0000 0.0088 0.0012
vn -1.0000 0.0089 0.0001
vn -1.0000 0.0090 -0.0000
vn -0.0249 0.6723 0.7399
vn -0.0249 0.6734 0.7389
vn 0.6628 0.7456 0.0690
vn 0.6991 0.7116 0.0702
vn -0.0578 0.7223 -0.6892
vn -0.0582 0.7518 -0.6568
vn -0.7330 0.6794 0.0344
vn -0.7319 0.6805 0.0345
vn -0.9661 0.0363 0.2556
vn -0.8668 -0.0015 0.4986
vn -0.3111 0.9141 0.2602
vn -0.3576 0.9170 0.1767
vn 0.6803 0.6485 -0.3414
vn 0.7593 0.6299 -0.1635
vn 0.6338 -0.6408 -0.4333
vn 0.7257 -0.6356 -0.2633
vn -0.3535 -0.9274 0.1222
vn -0.4104 -0.9116 0.0255
vn -0.5003 -0.0382 0.8650
vn -0.1765 0.9021 0.3938
vn 0.3921 0.6793 -0.6204
vn 0.3703 -0.6178 -0.6937
vn -0.2056 -0.9414 0.2676
vn -0.1315 -0.0563 0.9897
vn -0.0401 0.9118 0.4087
vn 0.1048 0.6662 -0.7384
vn 0.1022 -0.5725 -0.8135
vn -0.0511 -0.9592 0.2782
vn 0.1320 -0.0648 0.9891
vn 0.0472 0.9098 0.4124
vn -0.1065 0.6720 -0.7328
vn -0.1005 -0.5662 -0.8181
vn 0.0439 -0.9608 0.2736
vn 0.5013 -0.0687 0.8626
vn 0.1933 0.8941 0.4040
vn -0.3870 0.7006 -0.5995
vn -0.3755 -0.5950 -0.7106
vn 0.1877 -0.9486 0.2547
vn 0.8676 -0.0560 0.4942
vn 0.3388 0.9013 0.2700
vn -0.6522 0.6870 -0.3205
vn -0.6618 -0.6013 -0.4477
vn 0.3237 -0.9399 0.1087
vn 0.9678 -0.0275 0.2502
vn 0.3901 0.9028 0.1812
vn -0.7231 0.6751 -0.1462
vn -0.7622 -0.5872 -0.2725
vn 0.3745 -0.9271 0.0175
vn 0.0025 -0.0524 0.9986
vn 0.0005 -0.0490 0.9988
vn 0.0003 -0.0497 0.9988
vn 0.0030 -0.0527 0.9986
vn -0.0001 -0.0513 0.9987
vn -0.0001 -0.0515 0.9987
vn -0.0003 -0.0464 0.9989
vn -0.0002 -0.0463 0.9989
vn 0.0025 -0.0450 0.9990
vn 0.0024 -0.0454 0.9990
vn -0.0004 -0.0485 0.9988
vn -0.0024 -0.0526 0.9986
vn -0.0023 -0.0522 0.9986
vn -0.0002 -0.0479 0.9989
vn 0.0004 -0.0512 0.9987
vn 0.0003 -0.0512 0.9987
vn 0.0002 -0.0463 0.9989
vn 0.0002 -0.0461 0.9989
vn -0.0024 -0.0452 0.9990
vn -0.0029 -0.0449 0.9990
vn -0.2821 0.9571 0.0656
vn -0.9990 0.0448 0.0031
vn -0.9995 0.0316 0.0023
vn -0.2867 0.9558 0.0656
vn 0.8212 0.5693 0.0387
vn 0.8272 0.5607 0.0381
vn 0.7891 -0.6129 -0.0400
vn 0.7827 -0.6211 -0.0404
vn -0.3295 -0.9422 -0.0607
vn -0.3267 -0.9432 -0.0608
vn 0.9998 -0.0221 -0.0013
vn 0.3187 0.9456 0.0649
vn 0.3238 0.9439 0.0647
vn 0.9994 -0.0354 -0.0022
vn -0.7868 0.6158 0.0418
vn -0.7927 0.6082 0.0414
vn -0.8237 -0.5659 -0.0368
vn -0.8170 -0.5754 -0.0375
vn 0.2897 -0.9551 -0.0616
vn 0.2873 -0.9559 -0.0616
vn -0.0008 -0.0338 0.9994
vn 0.0003 -0.0405 0.9992
vn -0.0010 -0.0394 0.9992
vn -0.0027 -0.0410 0.9992
vn -0.0020 -0.0329 0.9995
vn -0.0022 -0.0327 0.9995
vn -0.0022 -0.0328 0.9995
vn 0.0004 -0.0327 0.9995
vn -0.1516 -0.9884 0.0000
vn 0.0438 -0.9990 -0.0000
vn 0.0443 -0.9990 0.0000
vn -0.1521 -0.9884 0.0000
vn 0.9971 -0.0765 -0.0000
vn 0.9925 0.1221 -0.0000
vn 0.9920 0.1261 -0.0000
vn 0.9974 -0.0723 -0.0000
vn 0.0652 0.9979 -0.0000
vn -0.1322 0.9912 -0.0000
vn -0.1316 0.9913 0.0000
vn 0.0649 0.9979 -0.0000
vn -0.9979 0.0641 -0.0000
vn -0.9914 -0.1309 -0.0000
vn -0.9920 -0.1259 -0.0000
vn -0.9976 0.0693 -0.0000
vn -0.5022 -0.8648 -0.0000
vn -0.4967 -0.8679 0.0000
vn 0.8862 -0.4634 -0.0000
vn 0.8807 -0.4738 -0.0000
vn 0.4412 0.8974 -0.0000
vn 0.4462 0.8950 -0.0000
vn -0.8934 0.4493 -0.0000
vn -0.8993 0.4373 -0.0000
vn -0.8806 -0.4739 -0.0000
vn -0.8748 -0.4844 -0.0000
vn 0.4441 -0.8960 -0.0000
vn 0.4383 -0.8988 -0.0000
vn 0.8655 0.5009 -0.0000
vn 0.8708 0.4917 -0.0000
vn -0.4974 0.8675 -0.0000
vn -0.5038 0.8638 -0.0000
# 221 vertex normals

vt 0.9908 0.2662 0.0000
vt 0.7006 0.2664 0.0000
vt 0.7008 0.0085 0.0000
vt 0.9909 0.0083 0.0000
vt 0.4065 0.4313 0.0000
vt 0.4068 0.7471 0.0000
vt 0.0499 0.7474 0.0000
vt 0.0496 0.4316 0.0000
vt 0.0438 0.4259 0.0000
vt 0.0442 0.7532 0.0000
vt 0.0170 0.7529 0.0000
vt 0.0154 0.4263 0.0000
vt 0.4122 0.4256 0.0000
vt 0.0441 0.3974 0.0000
vt 0.4117 0.3951 0.0000
vt 0.4126 0.7529 0.0000
vt 0.4427 0.4259 0.0000
vt 0.4417 0.7525 0.0000
vt 0.4121 0.7820 0.0000
vt 0.0445 0.7803 0.0000
vt 0.5168 0.2869 0.0000
vt 0.4282 0.2902 0.0000
vt 0.4283 0.0850 0.0000
vt 0.4977 0.0766 0.0000
vt 0.0119 0.2873 0.0000
vt 0.0312 0.0770 0.0000
vt 0.0965 0.0852 0.0000
vt 0.0964 0.2917 0.0000
vt 0.0966 0.3764 0.0000
vt 0.4285 0.3789 0.0000
vt 0.0958 0.0194 0.0000
vt 0.4276 0.0151 0.0000
vt 0.5437 0.8771 0.0000
vt 0.4822 0.8654 0.0000
vt 0.4843 0.8162 0.0000
vt 0.5437 0.8128 0.0000
vt 0.6375 0.7563 0.0000
vt 0.6374 0.7174 0.0000
vt 0.9814 0.7227 0.0000
vt 0.9826 0.7533 0.0000
vt 0.6381 0.7965 0.0000
vt 0.9848 0.7916 0.0000
vt 0.6384 0.6772 0.0000
vt 0.6398 0.6383 0.0000
vt 0.9868 0.6458 0.0000
vt 0.9840 0.6857 0.0000
vt 0.5013 0.7854 0.0000
vt 0.5013 0.7357 0.0000
vt 0.5492 0.7357 0.0000
vt 0.5492 0.7854 0.0000
vt 0.6292 0.6214 0.0000
vt 0.6271 0.5827 0.0000
vt 0.9818 0.5698 0.0000
vt 0.9845 0.5995 0.0000
vt 0.6242 0.5038 0.0000
vt 0.6276 0.4637 0.0000
vt 0.9833 0.4783 0.0000
vt 0.9819 0.5092 0.0000
vt 0.6239 0.5426 0.0000
vt 0.9806 0.5389 0.0000
vt 0.4939 0.7028 0.0000
vt 0.4971 0.6436 0.0000
vt 0.5492 0.6436 0.0000
vt 0.5492 0.6975 0.0000
vt 0.6138 0.4057 0.0000
vt 0.6147 0.3669 0.0000
vt 0.9799 0.3607 0.0000
vt 0.9803 0.3932 0.0000
vt 0.6155 0.4459 0.0000
vt 0.9836 0.4299 0.0000
vt 0.6145 0.3267 0.0000
vt 0.6130 0.2879 0.0000
vt 0.9810 0.2928 0.0000
vt 0.9812 0.3272 0.0000
vt 0.4836 0.9596 0.0000
vt 0.4896 0.9001 0.0000
vt 0.5410 0.9001 0.0000
vt 0.5410 0.9596 0.0000
vt 0.6060 0.8607 0.0000
vt 0.6079 0.8219 0.0000
vt 0.9848 0.8241 0.0000
vt 0.9843 0.8561 0.0000
vt 0.6044 0.9009 0.0000
vt 0.9845 0.8931 0.0000
vt 0.6072 0.9396 0.0000
vt 0.9859 0.9288 0.0000
vt 0.6108 0.9797 0.0000
vt 0.9875 0.9658 0.0000
vt 0.6434 0.2404 0.0000
vt 0.6395 0.2104 0.0000
vt 0.6532 0.2075 0.0000
vt 0.6607 0.2334 0.0000
vt 0.6677 0.2027 0.0000
vt 0.6739 0.2231 0.0000
vt 0.6822 0.1990 0.0000
vt 0.6879 0.2183 0.0000
vt 0.6099 0.2320 0.0000
vt 0.6107 0.2097 0.0000
vt 0.6255 0.2104 0.0000
vt 0.6251 0.2378 0.0000
vt 0.6362 0.1830 0.0000
vt 0.6502 0.1820 0.0000
vt 0.6649 0.1807 0.0000
vt 0.6797 0.1793 0.0000
vt 0.6081 0.1853 0.0000
vt 0.6225 0.1840 0.0000
vt 0.6347 0.1566 0.0000
vt 0.6497 0.1566 0.0000
vt 0.6645 0.1567 0.0000
vt 0.6792 0.1565 0.0000
vt 0.6052 0.1581 0.0000
vt 0.6199 0.1572 0.0000
vt 0.6347 0.1193 0.0000
vt 0.6497 0.1195 0.0000
vt 0.6645 0.1195 0.0000
vt 0.6792 0.1197 0.0000
vt 0.6052 0.1176 0.0000
vt 0.6199 0.1186 0.0000
vt 0.6365 0.0930 0.0000
vt 0.6504 0.0940 0.0000
vt 0.6651 0.0954 0.0000
vt 0.6799 0.0970 0.0000
vt 0.6083 0.0905 0.0000
vt 0.6227 0.0919 0.0000
vt 0.6399 0.0656 0.0000
vt 0.6536 0.0686 0.0000
vt 0.6681 0.0735 0.0000
vt 0.6826 0.0773 0.0000
vt 0.6111 0.0659 0.0000
vt 0.6260 0.0654 0.0000
vt 0.6442 0.0356 0.0000
vt 0.6614 0.0427 0.0000
vt 0.6745 0.0531 0.0000
vt 0.6884 0.0580 0.0000
vt 0.6106 0.0436 0.0000
vt 0.6259 0.0380 0.0000
vt 0.5815 0.1139 0.0000
vt 0.5551 0.1360 0.0000
vt 0.5556 0.1260 0.0000
vt 0.5721 0.1109 0.0000
vt 0.5774 0.0758 0.0000
vt 0.5708 0.0837 0.0000
vt 0.5397 0.0770 0.0000
vt 0.5455 0.0850 0.0000
vt 0.5298 0.1153 0.0000
vt 0.5394 0.1124 0.0000
vt 0.5886 0.2221 0.0000
vt 0.5511 0.2203 0.0000
vt 0.5560 0.2115 0.0000
vt 0.5817 0.2150 0.0000
vt 0.5314 0.1862 0.0000
vt 0.5413 0.1875 0.0000
vt 0.5571 0.1645 0.0000
vt 0.5580 0.1746 0.0000
vt 0.5847 0.1833 0.0000
vt 0.5761 0.1878 0.0000
vt 0.5889 0.1163 0.0000
vt 0.5552 0.1415 0.0000
vt 0.5814 0.0712 0.0000
vt 0.5360 0.0717 0.0000
vt 0.5228 0.1172 0.0000
vt 0.5923 0.2260 0.0000
vt 0.5473 0.2267 0.0000
vt 0.5246 0.1854 0.0000
vt 0.5564 0.1589 0.0000
vt 0.5918 0.1798 0.0000
vt 0.0675 0.8227 0.0000
vt 0.3868 0.8224 0.0000
vt 0.3986 0.8257 0.0000
vt 0.4055 0.8325 0.0000
vt 0.4091 0.8442 0.0000
vt 0.3872 0.9367 0.0000
vt 0.3991 0.9322 0.0000
vt 0.4061 0.9245 0.0000
vt 0.4093 0.9123 0.0000
vt 0.0467 0.9455 0.0000
vt 0.0501 0.9570 0.0000
vt 0.0569 0.9632 0.0000
vt 0.0687 0.9656 0.0000
vt 0.0558 0.8262 0.0000
vt 0.0489 0.8331 0.0000
vt 0.0456 0.8448 0.0000
vt 0.3923 0.9567 0.0000
vt 0.0668 0.9860 0.0000
vt 0.0267 0.9500 0.0000
vt 0.0253 0.8420 0.0000
vt 0.0638 0.8026 0.0000
vt 0.3904 0.8023 0.0000
vt 0.4293 0.8412 0.0000
vt 0.4295 0.9163 0.0000
vt 0.4106 0.9486 0.0000
vt 0.0342 0.9686 0.0000
vt 0.0449 0.8098 0.0000
vt 0.4223 0.8222 0.0000
vt 0.4230 0.9351 0.0000
vt 0.0475 0.9805 0.0000
vt 0.0321 0.8229 0.0000
vt 0.4094 0.8092 0.0000
# 198 texture coords

g Bedtable
usemtl 11___Default
s off
f 1/1/1 2/2/2 3/3/3 4/4/4 
f 5/5/5 6/6/6 7/7/7 8/8/8 
f 9/9/9 10/10/9 3/11/9 2/12/9 
f 11/13/10 9/9/10 2/14/10 1/15/10 
f 12/16/11 11/13/11 1/17/11 4/18/11 
f 10/10/12 12/16/12 4/19/12 3/20/12 
f 13/21/13 14/22/14 15/23/15 16/24/16 
f 17/25/17 18/26/18 19/27/19 20/28/20 
f 20/28/21 19/27/22 15/23/23 14/22/24 
f 17/29/25 20/28/26 14/22/27 13/30/28 
f 19/27/29 18/31/30 16/32/31 15/23/32 
f 21/33/33 22/34/33 23/35/33 24/36/33 
f 25/37/34 26/38/35 23/39/36 22/40/37 
f 27/41/38 25/37/39 22/40/40 21/42/41 
f 28/43/42 27/44/42 21/45/43 24/46/44 
f 26/38/45 28/43/46 24/46/47 23/39/48 
f 29/47/49 30/48/49 31/49/49 32/50/49 
f 33/51/50 34/52/50 31/53/51 30/54/52 
f 35/55/53 33/56/53 30/57/54 29/58/55 
f 36/59/56 35/55/57 29/58/58 32/60/59 
f 34/52/60 36/59/61 32/60/62 31/53/63 
f 37/61/33 38/62/33 39/63/33 40/64/33 
f 41/65/64 42/66/65 39/67/66 38/68/67 
f 43/69/68 41/65/69 38/68/70 37/70/71 
f 44/71/72 43/72/73 37/73/74 40/74/75 
f 42/66/76 44/71/76 40/74/77 39/67/78 
f 45/75/49 46/76/49 47/77/49 48/78/49 
f 49/79/79 50/80/79 47/81/80 46/82/81 
f 51/83/82 49/79/83 46/82/84 45/84/85 
f 52/85/86 51/83/87 45/84/88 48/86/89 
f 50/87/90 52/85/91 48/86/92 47/88/93 
f 9/9/94 8/8/95 7/7/94 10/10/94 
f 11/13/96 5/5/97 8/8/96 9/9/96 
f 12/16/98 6/6/99 5/5/98 11/13/98 
f 10/10/100 7/7/101 6/6/100 12/16/100 
f 53/89/102 54/90/103 55/91/104 56/92/105 
f 56/92/105 55/91/104 57/93/106 58/94/107 
f 58/94/107 57/93/106 59/95/108 60/96/109 
f 60/97/109 59/98/108 61/99/110 62/100/111 
f 62/100/111 61/99/110 54/90/103 53/89/102 
f 54/90/103 63/101/112 64/102/113 55/91/104 
f 55/91/104 64/102/113 65/103/114 57/93/106 
f 57/93/106 65/103/114 66/104/115 59/95/108 
f 59/98/108 66/105/115 67/106/116 61/99/110 
f 61/99/110 67/106/116 63/101/112 54/90/103 
f 63/101/112 68/107/117 69/108/118 64/102/113 
f 64/102/113 69/108/118 70/109/119 65/103/114 
f 65/103/114 70/109/119 71/110/120 66/104/115 
f 66/105/115 71/111/120 72/112/121 67/106/116 
f 67/106/116 72/112/121 68/107/117 63/101/112 
f 68/107/117 73/113/122 74/114/123 69/108/118 
f 69/108/118 74/114/123 75/115/124 70/109/119 
f 70/109/119 75/115/124 76/116/125 71/110/120 
f 71/111/120 76/117/125 77/118/126 72/112/121 
f 72/112/121 77/118/126 73/113/122 68/107/117 
f 73/113/122 78/119/127 79/120/128 74/114/123 
f 74/114/123 79/120/128 80/121/129 75/115/124 
f 75/115/124 80/121/129 81/122/130 76/116/125 
f 76/117/125 81/123/130 82/124/131 77/118/126 
f 77/118/126 82/124/131 78/119/127 73/113/122 
f 78/119/127 83/125/132 84/126/133 79/120/128 
f 79/120/128 84/126/133 85/127/134 80/121/129 
f 80/121/129 85/127/134 86/128/135 81/122/130 
f 81/123/130 86/129/135 87/130/136 82/124/131 
f 82/124/131 87/130/136 83/125/132 78/119/127 
f 83/125/132 88/131/137 89/132/138 84/126/133 
f 84/126/133 89/132/138 90/133/139 85/127/134 
f 85/127/134 90/133/139 91/134/140 86/128/135 
f 86/129/135 91/135/140 92/136/141 87/130/136 
f 87/130/136 92/136/141 88/131/137 83/125/132 
f 93/137/142 94/138/143 53/139/144 56/140/145 
f 95/141/146 93/137/142 56/140/145 58/142/147 
f 96/143/148 95/141/146 58/142/147 60/144/149 
f 97/145/150 96/143/148 60/144/149 62/146/151 
f 94/138/143 97/145/150 62/146/151 53/139/144 
f 98/147/152 99/148/153 89/149/154 88/150/155 
f 99/148/153 100/151/156 90/152/157 89/149/154 
f 100/151/156 101/153/158 91/154/159 90/152/157 
f 101/153/158 102/155/160 92/156/161 91/154/159 
f 102/155/160 98/147/152 88/150/155 92/156/161 
f 103/157/162 104/158/163 94/138/164 93/137/165 
f 105/159/166 103/157/162 93/137/165 95/141/167 
f 106/160/168 105/159/166 95/141/167 96/143/169 
f 107/161/170 106/160/168 96/143/169 97/145/171 
f 104/158/163 107/161/170 97/145/171 94/138/164 
f 108/162/172 109/163/173 99/148/174 98/147/175 
f 109/163/173 110/164/176 100/151/177 99/148/174 
f 110/164/176 111/165/178 101/153/179 100/151/177 
f 111/165/178 112/166/180 102/155/181 101/153/179 
f 112/166/180 108/162/172 98/147/175 102/155/181 
f 113/167/182 114/168/18 115/169/18 116/170/18 
f 113/167/182 116/170/18 117/171/183 118/172/184 
f 119/173/185 118/172/184 117/171/183 120/174/185 
f 117/171/183 121/175/185 120/174/185 
f 122/176/186 113/167/182 118/172/184 123/177/187 
f 124/178/187 123/177/187 118/172/184 125/179/188 
f 126/180/189 113/167/182 122/176/186 127/181/189 
f 122/176/186 128/182/189 127/181/189 
f 129/183/190 130/184/191 125/179/192 118/172/193 
f 131/185/194 132/186/195 128/182/196 122/176/197 
f 133/187/198 134/188/199 114/168/200 113/167/201 
f 135/189/202 136/190/203 121/175/204 117/171/205 
f 118/172/193 119/173/206 137/191/207 129/183/190 
f 122/176/197 123/177/208 138/192/209 131/185/194 
f 113/167/201 126/180/210 139/193/211 133/187/198 
f 117/171/205 116/170/212 140/194/213 135/189/202 
f 119/173/206 120/174/214 141/195/215 137/191/207 
f 120/174/214 121/175/204 136/190/203 141/195/215 
f 123/177/208 124/178/216 142/196/217 138/192/209 
f 124/178/216 125/179/192 130/184/191 142/196/217 
f 126/180/210 127/181/218 143/197/219 139/193/211 
f 127/181/218 128/182/196 132/186/195 143/197/219 
f 116/170/212 115/169/220 144/198/221 140/194/213 
f 115/169/220 114/168/200 134/188/199 144/198/221 
# 112 polygons - 2 triangles

