# 3ds Max Wavefront OBJ Exporter v0.97b - (c)2007 guruware
# File Created: 29.05.2017 17:10:33

mtllib BookShelf.mtl

#
# object BookShelf
#

v  -57.0678 28.3872 19.4387
v  55.1338 28.0106 18.7002
v  54.5420 30.2509 18.5378
v  -56.2307 32.9513 19.1518
v  -57.7822 33.0160 -18.0539
v  55.0486 30.2151 -20.6868
v  -58.6309 28.4594 -18.3963
v  55.6870 27.9619 -20.8918
v  -52.1222 63.1962 18.0107
v  47.6818 64.0819 17.3436
v  47.1655 68.3685 17.2882
v  -52.0593 65.4734 18.0370
v  -53.6891 65.2648 -13.8255
v  47.1373 68.3727 -16.1928
v  -53.7627 62.9911 -14.1560
v  47.6730 64.1031 -16.6045
v  -53.7958 91.4354 17.8052
v  45.2723 101.7017 15.6479
v  45.0395 104.1795 15.4543
v  -54.4608 96.6788 17.6624
v  -56.1864 96.2427 -10.6370
v  44.6751 103.3856 -14.1304
v  -55.5447 91.0057 -10.7556
v  44.9151 101.0011 -14.0341
v  -58.9984 151.8423 21.4954
v  44.1839 167.8216 20.1764
v  44.5583 172.5703 20.1825
v  -59.0602 154.5662 21.4743
v  -60.9098 153.5653 -9.3665
v  43.8767 168.8919 -12.4199
v  -60.8267 150.8600 -9.2377
v  43.6816 166.2300 -12.3383
v  67.3759 -0.0000 -24.3009
v  66.2467 -0.0000 22.9549
v  65.0787 -0.0000 24.4467
v  59.5035 -0.0000 23.1061
v  60.6020 -0.0000 24.5446
v  61.8206 -0.0000 -25.4925
v  60.6526 -0.0000 -24.0295
v  66.2852 -0.0000 -25.6728
v  48.0513 174.0968 -14.6532
v  42.1223 173.2697 -14.5743
v  41.2053 173.1305 -13.4716
v  42.7423 175.0416 22.9788
v  41.8099 174.8263 21.9842
v  49.5924 176.0625 21.8784
v  48.6684 175.8618 22.9100
v  48.9923 174.3735 -13.5948
v  50.5293 36.7807 21.2788
v  56.7246 36.7386 21.2100
v  49.7496 78.0145 19.8759
v  44.0650 78.1298 19.9238
v  57.7480 36.7275 19.9046
v  58.2736 36.6604 -21.5763
v  50.6595 78.0522 -16.8679
v  50.6412 77.9839 18.7734
v  57.2872 36.6738 -22.7862
v  51.1239 36.7352 -22.6486
v  44.1405 78.2113 -17.8530
v  49.7896 78.0930 -17.9408
v  50.1336 36.7522 -21.3702
v  49.5608 36.7917 20.0109
v  43.2235 78.1546 18.8476
v  43.2916 78.2299 -16.7368
v  -61.8262 -0.0000 -21.5476
v  -60.1643 -0.0000 23.9347
v  -61.2435 -0.0000 25.3108
v  -67.0671 -0.0000 23.9187
v  -65.8251 -0.0000 25.2997
v  -67.6387 -0.0000 -22.9616
v  -68.7942 -0.0000 -21.5483
v  -63.0113 -0.0000 -22.9612
v  -59.5023 155.8636 -11.5217
v  -65.0273 155.5373 -11.5104
v  -65.8856 155.5279 -10.4419
v  -62.8659 156.6098 24.0520
v  -63.8690 156.5188 23.1312
v  -56.4343 157.0906 23.1251
v  -57.3165 156.9917 24.0500
v  -58.5043 156.0197 -10.4581
v  -59.2728 39.5945 22.1433
v  -53.3956 39.5964 22.1514
v  -51.8437 74.9991 21.2354
v  -57.2478 75.0165 21.2423
v  -52.4472 39.6010 20.9425
v  -54.0764 39.6749 -18.8539
v  -52.6711 74.7706 -14.3158
v  -51.0122 74.9873 20.1964
v  -55.1213 39.6748 -20.0933
v  -61.0318 39.6744 -20.0924
v  -59.0924 74.7276 -15.4048
v  -53.6063 74.7591 -15.4117
v  -62.0432 39.6742 -18.8526
v  -60.3657 39.5984 20.9308
v  -58.2205 75.0111 20.2068
v  -59.9935 74.7283 -14.3052
v  41.2305 126.0672 20.5798
v  40.3361 125.9299 19.6089
v  -58.8432 110.8918 21.8847
v  -59.7784 110.8663 20.9640
v  47.0623 126.5987 20.5063
v  47.9779 126.7170 19.4971
v  47.6416 125.8075 -13.4897
v  46.7381 125.6563 -14.4919
v  40.8919 125.1410 -14.4193
v  39.9884 125.0347 -13.3685
v  -53.5402 110.9700 21.8793
v  -52.7243 110.9852 20.9552
v  -54.3889 110.4923 -10.3271
v  -55.2924 110.4439 -11.3503
v  -60.6093 110.3349 -11.3461
v  -61.4617 110.3290 -10.3196
v  -59.8111 120.0293 19.2862
v  44.8625 134.6991 18.4401
v  45.1224 139.3160 19.2056
v  -60.3283 122.1985 19.8201
v  -61.8710 121.8982 -8.9750
v  45.3283 139.4010 -11.5247
v  -61.3364 119.7392 -9.4976
v  45.1138 134.8245 -12.1689
# 120 vertices

vn 0.0058 0.0616 0.9981
vn 0.0057 0.0741 0.9972
vn 0.0057 0.0739 0.9973
vn 0.0058 0.0615 0.9981
vn 0.0203 0.9998 0.0005
vn 0.0202 0.9998 0.0007
vn 0.0205 0.9998 -0.0004
vn 0.0206 0.9998 -0.0006
vn -0.0177 0.0789 -0.9967
vn -0.0177 0.0845 -0.9963
vn -0.0177 0.0846 -0.9963
vn -0.0035 -1.0000 -0.0012
vn -0.0036 -1.0000 -0.0017
vn -0.0029 -1.0000 0.0007
vn -0.0028 -1.0000 0.0012
vn 0.0065 -0.0112 0.9999
vn 0.0054 0.0137 0.9999
vn 0.0055 0.0134 0.9999
vn 0.0065 -0.0118 0.9999
vn -0.0245 0.9997 -0.0041
vn -0.0242 0.9997 -0.0051
vn -0.0253 0.9997 -0.0007
vn -0.0256 0.9997 0.0002
vn -0.0229 0.1435 -0.9894
vn -0.0230 0.1447 -0.9892
vn -0.0208 0.0934 -0.9954
vn -0.0208 0.0928 -0.9955
vn 0.0089 -0.9999 0.0047
vn 0.0092 -0.9999 0.0058
vn 0.0077 -1.0000 0.0005
vn 0.0074 -1.0000 -0.0006
vn 0.0165 0.0304 0.9994
vn 0.0112 0.0791 0.9968
vn 0.0114 0.0778 0.9969
vn 0.0165 0.0297 0.9994
vn -0.0621 0.9980 -0.0131
vn -0.0626 0.9980 -0.0108
vn -0.0599 0.9979 -0.0237
vn -0.0594 0.9979 -0.0259
vn -0.0297 0.0175 -0.9994
vn -0.0298 0.0182 -0.9994
vn -0.0236 -0.0416 -0.9989
vn -0.0235 -0.0432 -0.9988
vn 0.0830 -0.9965 0.0109
vn 0.0825 -0.9966 0.0089
vn 0.0855 -0.9961 0.0203
vn 0.0860 -0.9960 0.0223
vn 0.0092 0.0078 0.9999
vn 0.0109 -0.0023 0.9999
vn 0.0109 -0.0022 0.9999
vn 0.0092 0.0080 0.9999
vn -0.1396 0.9896 -0.0361
vn -0.1429 0.9895 -0.0218
vn -0.1256 0.9875 -0.0950
vn -0.1223 0.9866 -0.1082
vn -0.0183 -0.0479 -0.9987
vn -0.0183 -0.0482 -0.9987
vn -0.0210 -0.0291 -0.9994
vn -0.0211 -0.0288 -0.9994
vn 0.1226 -0.9921 0.0266
vn 0.1217 -0.9923 0.0230
vn 0.1269 -0.9910 0.0426
vn 0.1278 -0.9907 0.0461
vn 0.0000 -1.0000 -0.0000
vn -0.1476 0.9882 -0.0418
vn -0.1149 0.9933 0.0102
vn -0.1209 0.9922 -0.0304
vn -0.1345 0.9901 -0.0399
vn -0.1502 0.9877 -0.0442
vn -0.1257 0.9919 -0.0154
vn -0.1131 0.9911 0.0707
vn -0.1991 0.9791 -0.0426
vn 0.0094 0.0580 0.9983
vn 0.0099 0.0673 0.9977
vn 0.0075 0.0127 0.9999
vn 0.0071 0.0082 0.9999
vn 0.9705 0.2407 0.0115
vn 0.9684 0.2486 0.0184
vn 0.9892 0.1465 0.0044
vn 0.9904 0.1383 -0.0020
vn -0.0174 0.0893 -0.9959
vn -0.0183 0.0955 -0.9953
vn -0.0116 0.0906 -0.9958
vn -0.0113 0.0950 -0.9954
vn -0.9652 -0.2612 -0.0130
vn -0.9674 -0.2525 -0.0195
vn -0.9914 -0.1310 -0.0059
vn -0.9902 -0.1397 0.0006
vn -0.0677 0.9974 -0.0264
vn -0.0490 0.9980 -0.0387
vn -0.0479 0.9984 -0.0299
vn -0.0602 0.9979 -0.0239
vn -0.0557 0.9981 -0.0254
vn -0.0637 0.9979 -0.0095
vn -0.0569 0.9975 0.0413
vn -0.1081 0.9939 -0.0237
vn -0.0010 0.0550 0.9985
vn -0.0012 0.0502 0.9987
vn 0.0009 0.0039 1.0000
vn 0.0011 0.0038 1.0000
vn 0.9886 -0.1419 -0.0510
vn 0.9887 -0.1421 -0.0474
vn 0.9984 0.0050 -0.0555
vn 0.9982 0.0060 -0.0594
vn -0.0002 0.1053 -0.9944
vn -0.0001 0.1000 -0.9950
vn -0.0015 0.1229 -0.9924
vn -0.0017 0.1227 -0.9924
vn -0.9891 0.1373 0.0529
vn -0.9891 0.1390 0.0491
vn -0.9982 0.0071 0.0590
vn -0.9980 0.0084 0.0624
vn 0.7084 0.1665 0.6859
vn 0.7173 0.1675 0.6763
vn -0.7271 -0.0612 0.6838
vn -0.6637 -0.0602 0.7455
vn 0.7001 0.2320 -0.6753
vn 0.6952 0.2313 -0.6806
vn -0.7359 -0.0715 -0.6733
vn -0.7297 -0.0691 -0.6803
vn 0.7195 -0.0201 0.6942
vn 0.7265 -0.0210 0.6868
vn -0.6610 -0.0488 0.7488
vn -0.6312 -0.0494 0.7741
vn 0.6956 0.0590 -0.7160
vn 0.7003 0.0585 -0.7115
vn -0.7044 0.1400 -0.6959
vn -0.7061 0.1398 -0.6942
vn 0.0126 -0.0301 0.9995
vn 0.0128 -0.0315 0.9994
vn 0.0152 -0.0495 0.9987
vn 0.0153 -0.0495 0.9987
vn 0.0172 0.0926 0.9956
vn 0.0181 0.0927 0.9955
vn 0.9998 0.0133 -0.0142
vn 0.9997 0.0202 -0.0097
vn 0.9992 -0.0366 -0.0159
vn 0.9991 -0.0385 -0.0185
vn 0.9607 0.2768 0.0206
vn 0.9582 0.2847 0.0276
vn -0.0127 0.0330 -0.9994
vn -0.0127 0.0353 -0.9993
vn -0.0107 -0.0030 -0.9999
vn -0.0313 0.0665 -0.9973
vn -0.0334 0.0655 -0.9973
vn -0.9995 -0.0284 0.0149
vn -0.9997 -0.0202 0.0098
vn -0.9993 0.0325 0.0162
vn -0.9994 0.0305 0.0191
vn -0.9476 -0.3187 -0.0214
vn -0.9498 -0.3117 -0.0279
vn 0.0013 -0.0330 0.9995
vn 0.0012 -0.0318 0.9995
vn 0.0029 -0.0470 0.9989
vn 0.0030 -0.0470 0.9989
vn -0.0019 0.0800 0.9968
vn -0.0020 0.0800 0.9968
vn 0.9943 0.0822 -0.0675
vn 0.9945 0.0837 -0.0634
vn 0.9920 0.1029 -0.0725
vn 0.9920 0.0998 -0.0769
vn 0.9724 -0.2290 -0.0456
vn 0.9731 -0.2262 -0.0429
vn -0.0017 0.0572 -0.9984
vn -0.0015 0.0523 -0.9986
vn -0.0014 -0.0039 -1.0000
vn -0.0015 -0.0039 -1.0000
vn 0.0001 0.0721 -0.9974
vn -0.9942 -0.0837 0.0676
vn -0.9944 -0.0836 0.0651
vn -0.9909 -0.1142 0.0717
vn -0.9903 -0.1166 0.0751
vn -0.9786 0.2002 0.0474
vn -0.9782 0.2029 0.0448
vn 0.6843 -0.0623 0.7266
vn 0.6772 -0.0621 0.7332
vn 0.6724 0.0352 0.7394
vn 0.7162 0.0368 0.6970
vn 0.7039 0.2515 0.6642
vn 0.7045 0.2516 0.6636
vn -0.7238 -0.1798 0.6662
vn -0.7245 -0.1800 0.6653
vn -0.7313 -0.1158 0.6722
vn -0.7243 -0.1146 0.6799
vn -0.6614 -0.0124 0.7499
vn -0.6683 -0.0116 0.7438
vn 0.6853 -0.0245 -0.7279
vn 0.6789 -0.0246 -0.7339
vn 0.6658 0.1030 -0.7390
vn 0.7132 0.1054 -0.6930
vn 0.6974 0.2588 -0.6683
vn 0.6908 0.2569 -0.6759
vn -0.7074 0.0195 -0.7066
vn -0.6953 0.0197 -0.7185
vn -0.6941 -0.0052 -0.7198
vn -0.7372 -0.0141 -0.6755
vn -0.7068 -0.1946 -0.6801
vn -0.7175 -0.2002 -0.6672
vn 0.6545 0.0291 0.7555
vn 0.6842 0.0321 0.7286
vn 0.6844 0.0259 0.7287
vn 0.7197 0.0266 0.6938
vn 0.7217 -0.1180 0.6821
vn 0.7218 -0.1180 0.6820
vn -0.6657 0.1903 0.7216
vn -0.6646 0.1901 0.7226
vn -0.6757 0.0652 0.7343
vn -0.6608 0.0635 0.7479
vn -0.5979 -0.1023 0.7950
vn -0.6278 -0.1032 0.7715
vn 0.6558 0.0693 -0.7517
vn 0.6812 0.0733 -0.7284
vn 0.6769 0.1203 -0.7261
vn 0.6914 0.1205 -0.7124
vn 0.6987 -0.1164 -0.7059
vn 0.6967 -0.1160 -0.7079
vn -0.7154 -0.0868 -0.6933
vn -0.7040 -0.0850 -0.7051
vn -0.7062 0.0443 -0.7066
vn -0.7108 0.0433 -0.7021
vn -0.6993 0.1902 -0.6891
vn -0.7001 0.1903 -0.6883
vn 0.0354 -0.2279 0.9731
vn 0.0258 -0.1652 0.9859
vn 0.0260 -0.1661 0.9858
vn 0.0356 -0.2292 0.9727
vn -0.1336 0.9910 -0.0012
vn -0.1335 0.9910 -0.0017
vn -0.1341 0.9910 0.0012
vn -0.1342 0.9910 0.0017
vn -0.0489 0.2195 -0.9744
vn -0.0492 0.2211 -0.9740
vn -0.0374 0.1424 -0.9891
vn -0.0372 0.1414 -0.9893
vn 0.1166 -0.9932 0.0018
vn 0.1168 -0.9931 0.0025
vn 0.1157 -0.9933 -0.0021
vn 0.1155 -0.9933 -0.0029
# 238 vertex normals

vt 0.1376 0.1847 0.0000
vt 0.1397 0.5810 0.0000
vt 0.1331 0.5789 0.0000
vt 0.1242 0.1877 0.0000
vt 0.0150 0.1852 0.0000
vt 0.0183 0.5839 0.0000
vt 0.2484 0.1792 0.0000
vt 0.2619 0.1819 0.0000
vt 0.2623 0.5805 0.0000
vt 0.2558 0.5829 0.0000
vt 0.6799 0.6391 0.0000
vt 0.6753 0.9916 0.0000
vt 0.6628 0.9897 0.0000
vt 0.6733 0.6393 0.0000
vt 0.7810 0.6353 0.0000
vt 0.8745 0.6376 0.0000
vt 0.8854 0.9880 0.0000
vt 0.7874 0.9916 0.0000
vt 0.7743 0.6350 0.0000
vt 0.7748 0.9934 0.0000
vt 0.6547 0.6402 0.0000
vt 0.6401 0.9911 0.0000
vt 0.6328 0.9906 0.0000
vt 0.6393 0.6385 0.0000
vt 0.5563 0.6323 0.0000
vt 0.5461 0.9892 0.0000
vt 0.5408 0.6333 0.0000
vt 0.5390 0.9894 0.0000
vt 0.4570 0.6368 0.0000
vt 0.4520 0.9880 0.0000
vt 0.2069 0.6176 0.0000
vt 0.2222 0.9848 0.0000
vt 0.2087 0.9884 0.0000
vt 0.1990 0.6187 0.0000
vt 0.1085 0.6151 0.0000
vt 0.1126 0.9881 0.0000
vt 0.1006 0.6145 0.0000
vt 0.1049 0.9865 0.0000
vt 0.0104 0.6201 0.0000
vt 0.0095 0.9876 0.0000
vt 0.9569 0.9815 0.0000
vt 0.9554 0.8070 0.0000
vt 0.9604 0.8013 0.0000
vt 0.9854 0.8053 0.0000
vt 0.9803 0.8002 0.0000
vt 0.9818 0.9850 0.0000
vt 0.9868 0.9794 0.0000
vt 0.9620 0.9864 0.0000
vt 0.9090 0.8471 0.0000
vt 0.9356 0.8463 0.0000
vt 0.9398 0.8502 0.0000
vt 0.9379 0.9851 0.0000
vt 0.9420 0.9812 0.0000
vt 0.9071 0.9824 0.0000
vt 0.9114 0.9860 0.0000
vt 0.9049 0.8512 0.0000
vt 0.8308 0.1421 0.0000
vt 0.8536 0.1363 0.0000
vt 0.8536 0.2841 0.0000
vt 0.8308 0.2880 0.0000
vt 0.8586 0.1354 0.0000
vt 0.9940 0.1375 0.0000
vt 0.9940 0.2821 0.0000
vt 0.8586 0.2833 0.0000
vt 0.6579 0.1422 0.0000
vt 0.6788 0.1456 0.0000
vt 0.6788 0.2909 0.0000
vt 0.6579 0.2894 0.0000
vt 0.6849 0.1465 0.0000
vt 0.8257 0.1426 0.0000
vt 0.8257 0.2886 0.0000
vt 0.6849 0.2915 0.0000
vt 0.9118 0.8268 0.0000
vt 0.9106 0.6587 0.0000
vt 0.9156 0.6538 0.0000
vt 0.9413 0.6599 0.0000
vt 0.9360 0.6546 0.0000
vt 0.9374 0.8330 0.0000
vt 0.9428 0.8280 0.0000
vt 0.9168 0.8322 0.0000
vt 0.9551 0.6568 0.0000
vt 0.9796 0.6546 0.0000
vt 0.9837 0.6582 0.0000
vt 0.9819 0.7863 0.0000
vt 0.9861 0.7825 0.0000
vt 0.9531 0.7856 0.0000
vt 0.9573 0.7886 0.0000
vt 0.9510 0.6612 0.0000
vt 0.6032 0.1687 0.0000
vt 0.6397 0.1745 0.0000
vt 0.6397 0.2999 0.0000
vt 0.6032 0.2971 0.0000
vt 0.2844 0.1696 0.0000
vt 0.4242 0.1575 0.0000
vt 0.4242 0.2847 0.0000
vt 0.2844 0.2961 0.0000
vt 0.4303 0.1573 0.0000
vt 0.4527 0.1547 0.0000
vt 0.4527 0.2840 0.0000
vt 0.4303 0.2844 0.0000
vt 0.4571 0.1551 0.0000
vt 0.5975 0.1679 0.0000
vt 0.5975 0.2965 0.0000
vt 0.4571 0.2838 0.0000
vt 0.8308 0.4546 0.0000
vt 0.8257 0.4550 0.0000
vt 0.6525 0.1423 0.0000
vt 0.6525 0.2896 0.0000
vt 0.2763 0.1694 0.0000
vt 0.2763 0.2964 0.0000
vt 0.6032 0.4256 0.0000
vt 0.5975 0.4253 0.0000
vt 0.8536 0.4546 0.0000
vt 0.8536 0.6195 0.0000
vt 0.8308 0.6195 0.0000
vt 0.8308 0.0074 0.0000
vt 0.8536 0.0074 0.0000
vt 0.8586 0.4547 0.0000
vt 0.9940 0.4453 0.0000
vt 0.9940 0.6195 0.0000
vt 0.8586 0.6195 0.0000
vt 0.8586 0.0074 0.0000
vt 0.9940 0.0074 0.0000
vt 0.6579 0.4552 0.0000
vt 0.6788 0.4537 0.0000
vt 0.6788 0.6195 0.0000
vt 0.6579 0.6195 0.0000
vt 0.6579 0.0074 0.0000
vt 0.6788 0.0074 0.0000
vt 0.6849 0.4533 0.0000
vt 0.8246 0.6195 0.0000
vt 0.6839 0.6195 0.0000
vt 0.6849 0.0074 0.0000
vt 0.8257 0.0074 0.0000
vt 0.6397 0.4260 0.0000
vt 0.6397 0.5856 0.0000
vt 0.6032 0.5856 0.0000
vt 0.6032 0.0189 0.0000
vt 0.6397 0.0189 0.0000
vt 0.2844 0.4248 0.0000
vt 0.4242 0.4149 0.0000
vt 0.4242 0.5856 0.0000
vt 0.2844 0.5856 0.0000
vt 0.2844 0.0189 0.0000
vt 0.4242 0.0189 0.0000
vt 0.4303 0.4140 0.0000
vt 0.4527 0.4147 0.0000
vt 0.4527 0.5856 0.0000
vt 0.4303 0.5856 0.0000
vt 0.4303 0.0189 0.0000
vt 0.4527 0.0189 0.0000
vt 0.4571 0.4148 0.0000
vt 0.5975 0.5856 0.0000
vt 0.4571 0.5856 0.0000
vt 0.4571 0.0189 0.0000
vt 0.5975 0.0189 0.0000
vt 0.6525 0.4558 0.0000
vt 0.6525 0.6195 0.0000
vt 0.6525 0.0074 0.0000
vt 0.2763 0.4255 0.0000
vt 0.2763 0.5856 0.0000
vt 0.2763 0.0189 0.0000
vt 0.3476 0.6153 0.0000
vt 0.3507 0.9875 0.0000
vt 0.3379 0.9901 0.0000
vt 0.3403 0.6143 0.0000
vt 0.2556 0.6088 0.0000
vt 0.2481 0.9908 0.0000
vt 0.2489 0.6097 0.0000
vt 0.2348 0.9881 0.0000
vt 0.4323 0.6099 0.0000
vt 0.4401 0.9884 0.0000
# 172 texture coords

g BookShelf
usemtl 08___Default
s off
f 1/1/1 2/2/2 3/3/3 4/4/4 
f 5/5/5 4/4/6 3/3/7 6/6/8 
f 7/7/9 5/8/9 6/9/10 8/10/11 
f 1/1/12 7/7/13 8/10/14 2/2/15 
f 9/11/16 10/12/17 11/13/18 12/14/19 
f 13/15/20 12/16/21 11/17/22 14/18/23 
f 15/19/24 13/15/25 14/18/26 16/20/27 
f 9/11/28 15/19/29 16/20/30 10/12/31 
f 17/21/32 18/22/33 19/23/34 20/24/35 
f 21/25/36 20/24/37 19/23/38 22/26/39 
f 23/27/40 21/25/41 22/26/42 24/28/43 
f 17/29/44 23/27/45 24/28/46 18/30/47 
f 25/31/48 26/32/49 27/33/50 28/34/51 
f 29/35/52 28/34/53 27/33/54 30/36/55 
f 31/37/56 29/35/57 30/36/58 32/38/59 
f 25/39/60 31/37/61 32/38/62 26/40/63 
f 33/41/64 34/42/64 35/43/64 36/44/64 
f 35/43/64 37/45/64 36/44/64 
f 38/46/64 33/41/64 36/44/64 39/47/64 
f 33/41/64 38/46/64 40/48/64 
f 41/49/65 42/50/66 43/51/67 44/52/68 
f 43/51/67 45/53/69 44/52/68 
f 46/54/70 41/49/65 44/52/68 47/55/71 
f 41/49/65 46/54/70 48/56/72 
f 49/57/73 50/58/74 51/59/75 52/60/76 
f 53/61/77 54/62/78 55/63/79 56/64/80 
f 57/65/81 58/66/82 59/67/83 60/68/84 
f 61/69/85 62/70/86 63/71/87 64/72/88 
f 65/73/64 66/74/64 67/75/64 68/76/64 
f 67/75/64 69/77/64 68/76/64 
f 70/78/64 65/73/64 68/76/64 71/79/64 
f 65/73/64 70/78/64 72/80/64 
f 73/81/89 74/82/90 75/83/91 76/84/92 
f 75/83/91 77/85/93 76/84/92 
f 78/86/94 73/81/89 76/84/92 79/87/95 
f 73/81/89 78/86/94 80/88/96 
f 81/89/97 82/90/98 83/91/99 84/92/100 
f 85/93/101 86/94/102 87/95/103 88/96/104 
f 89/97/105 90/98/106 91/99/107 92/100/108 
f 93/101/109 94/102/110 95/103/111 96/104/112 
f 50/58/113 53/61/114 56/64/113 51/59/113 
f 97/105/115 98/106/116 63/71/115 52/60/115 
f 54/107/117 57/65/118 60/68/117 55/108/117 
f 58/66/119 61/69/120 64/72/119 59/67/119 
f 82/109/121 85/93/122 88/96/121 83/110/121 
f 99/111/123 100/112/124 95/103/123 84/92/123 
f 86/94/125 89/97/126 92/100/125 87/95/125 
f 90/98/127 93/101/128 96/104/127 91/99/127 
f 97/105/129 101/113/130 47/114/131 44/115/132 
f 97/105/129 52/60/76 51/59/75 101/113/130 
f 50/58/74 49/57/73 37/116/133 35/117/134 
f 102/118/135 103/119/136 48/120/137 46/121/138 
f 56/64/80 55/63/79 103/119/136 102/118/135 
f 54/62/78 53/61/77 34/122/139 33/123/140 
f 104/124/141 105/125/142 42/126/143 41/127/143 
f 60/68/84 59/67/83 105/125/142 104/124/141 
f 58/66/82 57/65/81 40/128/144 38/129/145 
f 106/130/146 98/106/147 45/131/148 43/132/149 
f 64/72/88 63/71/87 98/106/147 106/130/146 
f 62/70/86 61/69/85 39/133/150 36/134/151 
f 99/111/152 107/135/153 79/136/154 76/137/155 
f 84/92/100 83/91/99 107/135/153 99/111/152 
f 82/90/98 81/89/97 69/138/156 67/139/157 
f 108/140/158 109/141/159 80/142/160 78/143/161 
f 88/96/104 87/95/103 109/141/159 108/140/158 
f 86/94/102 85/93/101 66/144/162 65/145/163 
f 110/146/164 111/147/165 74/148/166 73/149/167 
f 92/100/108 91/99/107 111/147/165 110/146/164 
f 90/98/106 89/97/105 72/150/168 70/151/168 
f 112/152/169 100/112/170 77/153/171 75/154/172 
f 96/104/112 95/103/111 100/112/170 112/152/169 
f 94/102/110 93/101/109 71/155/173 68/156/174 
f 101/113/175 102/118/176 46/121/175 47/114/175 
f 51/59/177 56/64/178 102/118/177 101/113/177 
f 53/61/179 50/58/180 35/117/179 34/122/179 
f 49/57/181 62/70/182 36/134/181 37/116/181 
f 52/60/183 63/71/184 62/70/183 49/57/183 
f 98/106/185 97/105/186 44/115/185 45/131/185 
f 103/157/187 104/124/188 41/127/187 48/158/187 
f 55/108/189 60/68/190 104/124/189 103/157/189 
f 57/65/191 54/107/192 33/159/191 40/128/191 
f 105/125/193 106/130/194 43/132/193 42/126/193 
f 59/67/195 64/72/196 106/130/195 105/125/195 
f 61/69/197 58/66/198 38/129/197 39/133/197 
f 107/160/199 108/140/200 78/143/199 79/161/199 
f 83/110/201 88/96/202 108/140/201 107/160/201 
f 85/93/203 82/109/204 67/162/203 66/144/203 
f 81/89/205 94/102/206 68/156/205 69/138/205 
f 84/92/207 95/103/208 94/102/207 81/89/207 
f 100/112/209 99/111/210 76/137/209 77/153/209 
f 109/141/211 110/146/212 73/149/211 80/142/211 
f 87/95/213 92/100/214 110/146/213 109/141/213 
f 89/97/215 86/94/216 65/145/215 72/150/215 
f 111/147/217 112/152/218 75/154/217 74/148/217 
f 91/99/219 96/104/220 112/152/219 111/147/219 
f 93/101/221 90/98/222 70/151/221 71/155/221 
f 113/163/223 114/164/224 115/165/225 116/166/226 
f 117/167/227 116/166/228 115/165/229 118/168/230 
f 119/169/231 117/167/232 118/168/233 120/170/234 
f 113/163/235 119/171/236 120/172/237 114/164/238 
# 92 polygons - 8 triangles

