# 3ds Max Wavefront OBJ Exporter v0.97b - (c)2007 guruware
# File Created: 29.05.2017 17:10:36

mtllib TableLamp.mtl

#
# object TableLamp
#

v  9.9519 99.8816 -3.6222
v  10.5906 99.8816 0.0000
v  29.4441 39.7029 -0.0000
v  27.6684 39.7029 -10.0705
v  22.5555 39.7029 -18.9263
v  8.1129 99.8816 -6.8075
v  14.7221 39.7029 -25.4993
v  5.2953 99.8816 -9.1718
v  5.1129 39.7029 -28.9968
v  1.8390 99.8816 -10.4297
v  -5.1129 39.7029 -28.9968
v  -1.8390 99.8816 -10.4297
v  -14.7221 39.7029 -25.4993
v  -5.2953 99.8816 -9.1718
v  -22.5555 39.7029 -18.9263
v  -8.1129 99.8816 -6.8075
v  -27.6684 39.7029 -10.0705
v  -9.9519 99.8816 -3.6222
v  -29.4441 39.7029 -0.0000
v  -10.5906 99.8816 -0.0000
v  -27.6684 39.7029 10.0705
v  -9.9520 99.8816 3.6222
v  -22.5555 39.7029 18.9263
v  -8.1129 99.8816 6.8075
v  -14.7221 39.7029 25.4993
v  -5.2953 99.8816 9.1718
v  -5.1129 39.7029 28.9968
v  -1.8391 99.8816 10.4297
v  5.1129 39.7029 28.9968
v  1.8390 99.8816 10.4297
v  14.7220 39.7029 25.4994
v  5.2953 99.8816 9.1718
v  22.5555 39.7029 18.9263
v  8.1129 99.8816 6.8075
v  27.6684 39.7029 10.0705
v  9.9519 99.8816 3.6222
v  27.1045 39.7029 -0.0000
v  25.4699 39.7029 -9.2703
v  25.4699 39.7029 9.2703
v  20.7633 39.7029 17.4225
v  13.5522 39.7029 23.4732
v  4.7066 39.7029 26.6927
v  -4.7067 39.7029 26.6927
v  -13.5523 39.7029 23.4732
v  -20.7633 39.7029 17.4224
v  -25.4699 39.7029 9.2703
v  -27.1045 39.7029 -0.0000
v  -25.4699 39.7029 -9.2703
v  -20.7633 39.7029 -17.4225
v  -13.5523 39.7029 -23.4732
v  -4.7067 39.7029 -26.6927
v  4.7066 39.7029 -26.6927
v  13.5523 39.7029 -23.4732
v  20.7633 39.7029 -17.4225
v  -0.0000 98.1025 0.0000
v  -5.7115 41.6762 0.0026
v  -6.9151 33.1105 0.0026
v  -5.5792 33.1105 4.1141
v  -4.6055 41.6762 3.4067
v  -9.5066 26.3425 0.0026
v  -7.6758 26.3425 5.6374
v  -14.3159 19.6681 10.4617
v  -17.7143 19.6681 0.0026
v  -19.9155 12.4437 0.0026
v  -16.0967 12.4437 11.7555
v  -16.9501 4.8944 0.0026
v  -13.6977 4.8944 10.0125
v  -4.7899 0.0000 3.5406
v  -5.9394 0.0000 0.0026
v  -2.0818 33.1105 6.6552
v  -1.7098 41.6762 5.5105
v  -2.8826 26.3425 9.1198
v  -5.4189 19.6681 16.9258
v  -6.0991 12.4437 19.0192
v  -5.1827 4.8944 16.1990
v  -1.7803 0.0000 5.7272
v  2.2413 33.1105 6.6552
v  1.8694 41.6762 5.5105
v  3.0422 26.3425 9.1198
v  5.5785 19.6681 16.9258
v  6.2587 12.4437 19.0192
v  5.3423 4.8944 16.1990
v  1.9398 0.0000 5.7272
v  5.7388 33.1105 4.1141
v  4.7651 41.6762 3.4066
v  7.8354 26.3425 5.6374
v  14.4755 19.6681 10.4617
v  16.2563 12.4437 11.7555
v  13.8573 4.8944 10.0125
v  4.9494 0.0000 3.5406
v  7.0747 33.1105 0.0026
v  5.8711 41.6762 0.0026
v  9.6662 26.3425 0.0026
v  17.8739 19.6681 0.0026
v  20.0750 12.4437 0.0026
v  17.1097 4.8944 0.0026
v  6.0990 0.0000 0.0026
v  5.7388 33.1105 -4.1089
v  4.7651 41.6762 -3.4015
v  7.8354 26.3425 -5.6322
v  14.4755 19.6681 -10.4565
v  16.2563 12.4437 -11.7503
v  13.8573 4.8944 -10.0073
v  4.9494 -0.0000 -3.5354
v  2.2413 33.1105 -6.6500
v  1.8694 41.6762 -5.5053
v  3.0422 26.3425 -9.1146
v  5.5785 19.6681 -16.9206
v  6.2587 12.4437 -19.0140
v  5.3423 4.8944 -16.1938
v  1.9398 0.0000 -5.7220
v  -2.0818 33.1105 -6.6500
v  -1.7098 41.6762 -5.5053
v  -2.8826 26.3425 -9.1146
v  -5.4189 19.6681 -16.9206
v  -6.0991 12.4437 -19.0140
v  -5.1827 4.8944 -16.1938
v  -1.7803 0.0000 -5.7220
v  -5.5792 33.1105 -4.1089
v  -4.6055 41.6762 -3.4015
v  -7.6758 26.3425 -5.6322
v  -14.3159 19.6681 -10.4565
v  -16.0967 12.4437 -11.7503
v  -13.6977 4.8944 -10.0073
v  -4.7899 -0.0000 -3.5354
v  -2.6392 39.9774 0.0021
v  -4.4105 48.0438 0.0021
v  -2.1734 48.0438 -3.8727
v  -1.2878 39.9774 -2.3387
v  -8.7728 52.4812 0.0021
v  -4.3545 52.4812 -7.6506
v  -8.4997 57.8730 0.0021
v  -4.2180 57.8730 -7.4141
v  -2.7456 62.4910 0.0021
v  -1.3409 62.4910 -2.4309
v  2.3008 48.0438 -3.8727
v  1.4152 39.9774 -2.3387
v  4.4820 52.4812 -7.6506
v  4.3454 57.8730 -7.4141
v  1.4684 62.4910 -2.4309
v  4.5379 48.0438 0.0021
v  2.7667 39.9774 0.0021
v  8.9002 52.4812 0.0021
v  8.6272 57.8730 0.0021
v  2.8730 62.4910 0.0021
v  2.3008 48.0438 3.8769
v  1.4152 39.9774 2.3429
v  4.4820 52.4812 7.6547
v  4.3454 57.8730 7.4182
v  1.4684 62.4910 2.4350
v  -2.1734 48.0438 3.8769
v  -1.2878 39.9774 2.3429
v  -4.3545 52.4812 7.6547
v  -4.2180 57.8730 7.4182
v  -1.3409 62.4910 2.4350
v  -4.4078 36.6760 -1.3549
v  -27.0409 40.5940 -1.1265
v  -27.3488 41.1378 -0.1705
v  -5.2204 38.1117 1.1690
v  -27.0034 40.0503 -0.1229
v  -4.3088 35.2404 1.2946
v  0.9935 36.6760 4.6547
v  9.1761 40.7136 25.1219
v  9.9131 41.1204 24.9761
v  3.5945 38.1117 4.1403
v  9.8188 40.3068 24.7330
v  3.2621 35.2404 3.2823
v  4.3409 36.3218 -2.3356
v  18.9028 41.1455 -19.1866
v  18.1873 41.7454 -20.0326
v  2.6287 37.7574 -4.3601
v  17.9412 40.5456 -19.7371
v  2.0399 34.8861 -3.6530
# 173 vertices

vn 0.8967 0.2990 -0.3264
vn 0.9543 0.2990 0.0000
vn 0.7310 0.2990 -0.6134
vn 0.4771 0.2990 -0.8264
vn 0.1657 0.2990 -0.9398
vn -0.1657 0.2990 -0.9398
vn -0.4771 0.2990 -0.8264
vn -0.7310 0.2990 -0.6134
vn -0.8967 0.2990 -0.3264
vn -0.9543 0.2990 -0.0000
vn -0.8967 0.2990 0.3264
vn -0.7310 0.2990 0.6134
vn -0.4771 0.2990 0.8264
vn -0.1657 0.2990 0.9398
vn 0.1657 0.2990 0.9398
vn 0.4771 0.2990 0.8264
vn 0.7310 0.2990 0.6134
vn 0.8967 0.2990 0.3264
vn 0.0000 1.0000 -0.0000
vn 0.0000 -1.0000 -0.0000
vn -0.8524 -0.4210 0.3102
vn -0.9071 -0.4210 -0.0000
vn -0.0000 -1.0000 -0.0000
vn -0.8524 -0.4210 -0.3102
vn -0.6949 -0.4210 -0.5831
vn -0.4535 -0.4210 -0.7855
vn -0.1575 -0.4210 -0.8933
vn 0.1575 -0.4210 -0.8933
vn 0.4535 -0.4210 -0.7855
vn 0.6949 -0.4210 -0.5831
vn 0.8524 -0.4210 -0.3102
vn 0.9071 -0.4210 0.0000
vn 0.8524 -0.4210 0.3102
vn 0.6949 -0.4210 0.5831
vn 0.4535 -0.4210 0.7855
vn 0.1575 -0.4210 0.8933
vn -0.1575 -0.4210 0.8933
vn -0.4535 -0.4210 0.7855
vn -0.6949 -0.4210 0.5831
vn -0.9903 0.1391 0.0000
vn -0.9668 0.2555 0.0000
vn -0.7822 0.2555 0.5683
vn -0.8011 0.1391 0.5821
vn -0.7907 0.6121 0.0000
vn -0.6397 0.6121 0.4648
vn -0.6846 0.5328 0.4974
vn -0.8463 0.5328 -0.0000
vn -0.9993 -0.0369 -0.0000
vn -0.8085 -0.0369 0.5874
vn -0.7549 -0.6559 -0.0000
vn -0.6107 -0.6559 0.4437
vn -0.3286 -0.9138 0.2388
vn -0.4062 -0.9138 0.0000
vn -0.2988 0.2555 0.9195
vn -0.3060 0.1391 0.9418
vn -0.2444 0.6121 0.7520
vn -0.2615 0.5328 0.8048
vn -0.3088 -0.0369 0.9504
vn -0.2333 -0.6559 0.7179
vn -0.1255 -0.9138 0.3863
vn 0.2988 0.2555 0.9195
vn 0.3060 0.1391 0.9418
vn 0.2444 0.6121 0.7520
vn 0.2615 0.5328 0.8048
vn 0.3088 -0.0369 0.9504
vn 0.2333 -0.6559 0.7179
vn 0.1255 -0.9138 0.3863
vn 0.7822 0.2555 0.5683
vn 0.8011 0.1391 0.5821
vn 0.6397 0.6121 0.4648
vn 0.6846 0.5328 0.4974
vn 0.8085 -0.0369 0.5874
vn 0.6107 -0.6559 0.4437
vn 0.3286 -0.9138 0.2388
vn 0.9668 0.2555 -0.0000
vn 0.9903 0.1391 -0.0000
vn 0.7907 0.6121 -0.0000
vn 0.8463 0.5328 -0.0000
vn 0.9993 -0.0369 -0.0000
vn 0.7549 -0.6559 0.0000
vn 0.4062 -0.9138 0.0000
vn 0.7822 0.2555 -0.5683
vn 0.8011 0.1391 -0.5821
vn 0.6397 0.6121 -0.4648
vn 0.6846 0.5328 -0.4974
vn 0.8085 -0.0369 -0.5874
vn 0.6107 -0.6559 -0.4437
vn 0.3286 -0.9138 -0.2388
vn 0.2988 0.2555 -0.9195
vn 0.3060 0.1391 -0.9418
vn 0.2444 0.6121 -0.7520
vn 0.2615 0.5328 -0.8048
vn 0.3088 -0.0369 -0.9504
vn 0.2333 -0.6559 -0.7179
vn 0.1255 -0.9138 -0.3863
vn -0.2988 0.2555 -0.9195
vn -0.3060 0.1391 -0.9418
vn -0.2444 0.6121 -0.7520
vn -0.2615 0.5328 -0.8048
vn -0.3088 -0.0369 -0.9504
vn -0.2333 -0.6559 -0.7179
vn -0.1255 -0.9138 -0.3863
vn -0.7822 0.2555 -0.5683
vn -0.8011 0.1391 -0.5821
vn -0.6397 0.6121 -0.4648
vn -0.6846 0.5328 -0.4974
vn -0.8085 -0.0369 -0.5874
vn -0.6107 -0.6559 -0.4437
vn -0.3286 -0.9138 -0.2388
vn 0.0000 -1.0000 0.0000
vn -0.0000 -1.0000 0.0000
vn -0.9767 -0.2145 -0.0000
vn -0.8554 -0.5179 0.0000
vn -0.4277 -0.5179 -0.7408
vn -0.4884 -0.2145 -0.8459
vn -0.9479 -0.3187 0.0000
vn -0.4739 -0.3187 -0.8209
vn -0.9124 0.4092 0.0000
vn -0.4562 0.4092 -0.7902
vn -0.6259 0.7799 -0.0000
vn -0.3130 0.7799 -0.5421
vn 0.4277 -0.5179 -0.7408
vn 0.4884 -0.2145 -0.8459
vn 0.4739 -0.3187 -0.8209
vn 0.4562 0.4092 -0.7902
vn 0.3130 0.7799 -0.5421
vn 0.8554 -0.5179 0.0000
vn 0.9767 -0.2145 0.0000
vn 0.9479 -0.3187 0.0000
vn 0.9124 0.4092 -0.0000
vn 0.6259 0.7799 0.0000
vn 0.4277 -0.5179 0.7408
vn 0.4884 -0.2145 0.8459
vn 0.4739 -0.3187 0.8209
vn 0.4562 0.4092 0.7902
vn 0.3130 0.7799 0.5421
vn -0.4277 -0.5179 0.7408
vn -0.4884 -0.2145 0.8459
vn -0.4739 -0.3187 0.8209
vn -0.4562 0.4092 0.7902
vn -0.3130 0.7799 0.5421
vn -0.0000 1.0000 -0.0000
vn 0.0000 1.0000 0.0000
vn 0.1477 0.8794 -0.4527
vn -0.0569 0.0256 0.9981
vn -0.1555 -0.8710 -0.4661
vn -0.4803 0.8769 0.0190
vn 0.9577 -0.0252 -0.2868
vn 0.9577 -0.0253 -0.2868
vn -0.3623 -0.8762 0.3177
vn -0.3624 -0.8762 0.3177
vn 0.2160 0.8733 0.4366
vn -0.7056 -0.0297 -0.7080
vn -0.7056 -0.0296 -0.7080
vn 0.4611 -0.8749 0.1480
# 155 vertex normals

vt 0.0122 0.0069 0.0000
vt 0.0544 0.0069 0.0000
vt 0.0544 0.4938 0.0000
vt 0.0122 0.4938 0.0000
vt 0.7624 0.0069 0.0000
vt 0.7624 0.4938 0.0000
vt 0.7204 0.4938 0.0000
vt 0.7204 0.0069 0.0000
vt 0.6788 0.4938 0.0000
vt 0.6788 0.0069 0.0000
vt 0.6376 0.4938 0.0000
vt 0.6376 0.0069 0.0000
vt 0.5966 0.4938 0.0000
vt 0.5966 0.0069 0.0000
vt 0.5554 0.4938 0.0000
vt 0.5554 0.0069 0.0000
vt 0.5138 0.4938 0.0000
vt 0.5138 0.0069 0.0000
vt 0.4718 0.4938 0.0000
vt 0.4718 0.0069 0.0000
vt 0.4295 0.4938 0.0000
vt 0.4295 0.0069 0.0000
vt 0.3873 0.4938 0.0000
vt 0.3873 0.0069 0.0000
vt 0.3453 0.4938 0.0000
vt 0.3453 0.0069 0.0000
vt 0.3037 0.4938 0.0000
vt 0.3037 0.0069 0.0000
vt 0.2625 0.4938 0.0000
vt 0.2625 0.0069 0.0000
vt 0.2215 0.4938 0.0000
vt 0.2215 0.0069 0.0000
vt 0.1803 0.4938 0.0000
vt 0.1803 0.0069 0.0000
vt 0.1387 0.4938 0.0000
vt 0.1387 0.0069 0.0000
vt 0.0967 0.4938 0.0000
vt 0.0967 0.0069 0.0000
vt 0.6984 0.6142 0.0000
vt 0.7132 0.6266 0.0000
vt 0.7229 0.6433 0.0000
vt 0.6984 0.7105 0.0000
vt 0.7229 0.6814 0.0000
vt 0.7262 0.6624 0.0000
vt 0.7132 0.6981 0.0000
vt 0.6280 0.6981 0.0000
vt 0.6610 0.7171 0.0000
vt 0.6803 0.7171 0.0000
vt 0.6428 0.7105 0.0000
vt 0.6280 0.6266 0.0000
vt 0.6150 0.6624 0.0000
vt 0.6184 0.6814 0.0000
vt 0.6184 0.6433 0.0000
vt 0.6610 0.6076 0.0000
vt 0.6428 0.6142 0.0000
vt 0.6803 0.6076 0.0000
vt 0.9708 0.7450 0.0000
vt 0.9586 0.6760 0.0000
vt 0.9750 0.6700 0.0000
vt 0.9882 0.7450 0.0000
vt 0.9586 0.8140 0.0000
vt 0.9750 0.8200 0.0000
vt 0.9236 0.8747 0.0000
vt 0.9369 0.8859 0.0000
vt 0.8699 0.9197 0.0000
vt 0.8786 0.9348 0.0000
vt 0.8041 0.9437 0.0000
vt 0.8071 0.9608 0.0000
vt 0.7340 0.9437 0.0000
vt 0.7310 0.9608 0.0000
vt 0.6682 0.9197 0.0000
vt 0.6595 0.9348 0.0000
vt 0.6145 0.8747 0.0000
vt 0.6012 0.8859 0.0000
vt 0.5795 0.8140 0.0000
vt 0.5631 0.8200 0.0000
vt 0.5673 0.7450 0.0000
vt 0.5499 0.7450 0.0000
vt 0.5795 0.6760 0.0000
vt 0.5631 0.6700 0.0000
vt 0.6145 0.6153 0.0000
vt 0.6012 0.6041 0.0000
vt 0.6682 0.5703 0.0000
vt 0.6595 0.5552 0.0000
vt 0.7340 0.5463 0.0000
vt 0.7310 0.5292 0.0000
vt 0.8041 0.5463 0.0000
vt 0.8071 0.5292 0.0000
vt 0.8699 0.5703 0.0000
vt 0.8786 0.5552 0.0000
vt 0.9236 0.6153 0.0000
vt 0.9369 0.6041 0.0000
vt 0.9098 0.7778 0.0000
vt 0.9035 0.8048 0.0000
vt 0.7223 0.7484 0.0000
vt 0.8934 0.8306 0.0000
vt 0.8795 0.8547 0.0000
vt 0.8624 0.8765 0.0000
vt 0.8422 0.8955 0.0000
vt 0.8195 0.9114 0.0000
vt 0.7947 0.9239 0.0000
vt 0.7683 0.9325 0.0000
vt 0.7716 0.5652 0.0000
vt 0.7978 0.5743 0.0000
vt 0.8224 0.5872 0.0000
vt 0.8448 0.6035 0.0000
vt 0.8647 0.6229 0.0000
vt 0.8814 0.6450 0.0000
vt 0.8948 0.6693 0.0000
vt 0.9045 0.6953 0.0000
vt 0.9103 0.7225 0.0000
vt 0.9121 0.7502 0.0000
vt 0.0686 0.8820 0.0000
vt 0.0686 0.7937 0.0000
vt 0.1230 0.7937 0.0000
vt 0.1230 0.8820 0.0000
vt 0.0686 0.7395 0.0000
vt 0.1230 0.7395 0.0000
vt 0.1230 0.6860 0.0000
vt 0.0686 0.6860 0.0000
vt 0.0686 0.6281 0.0000
vt 0.1230 0.6281 0.0000
vt 0.0686 0.5656 0.0000
vt 0.1230 0.5656 0.0000
vt 0.1230 0.5106 0.0000
vt 0.0686 0.5106 0.0000
vt 0.1747 0.7937 0.0000
vt 0.1747 0.8820 0.0000
vt 0.1747 0.7395 0.0000
vt 0.1747 0.6860 0.0000
vt 0.1747 0.6281 0.0000
vt 0.1747 0.5656 0.0000
vt 0.1747 0.5106 0.0000
vt 0.2247 0.7937 0.0000
vt 0.2247 0.8820 0.0000
vt 0.2247 0.7395 0.0000
vt 0.2247 0.6860 0.0000
vt 0.2247 0.6281 0.0000
vt 0.2247 0.5656 0.0000
vt 0.2247 0.5106 0.0000
vt 0.2764 0.7937 0.0000
vt 0.2764 0.8820 0.0000
vt 0.2764 0.7395 0.0000
vt 0.2764 0.6860 0.0000
vt 0.2764 0.6281 0.0000
vt 0.2764 0.5656 0.0000
vt 0.2764 0.5106 0.0000
vt 0.3308 0.7937 0.0000
vt 0.3308 0.8820 0.0000
vt 0.3308 0.7395 0.0000
vt 0.3308 0.6860 0.0000
vt 0.3308 0.6281 0.0000
vt 0.3308 0.5656 0.0000
vt 0.3308 0.5106 0.0000
vt 0.3853 0.7937 0.0000
vt 0.3853 0.8820 0.0000
vt 0.3853 0.7395 0.0000
vt 0.3853 0.6860 0.0000
vt 0.3853 0.6281 0.0000
vt 0.3853 0.5656 0.0000
vt 0.3853 0.5106 0.0000
vt 0.4369 0.7937 0.0000
vt 0.4369 0.8820 0.0000
vt 0.4369 0.7395 0.0000
vt 0.4369 0.6860 0.0000
vt 0.4369 0.6281 0.0000
vt 0.4369 0.5656 0.0000
vt 0.4369 0.5106 0.0000
vt 0.4870 0.7937 0.0000
vt 0.4870 0.8820 0.0000
vt 0.4870 0.7395 0.0000
vt 0.4870 0.6860 0.0000
vt 0.4870 0.6281 0.0000
vt 0.4870 0.5656 0.0000
vt 0.4870 0.5106 0.0000
vt 0.5386 0.7937 0.0000
vt 0.5386 0.8820 0.0000
vt 0.5386 0.7395 0.0000
vt 0.5386 0.6860 0.0000
vt 0.5386 0.6281 0.0000
vt 0.5386 0.5656 0.0000
vt 0.5386 0.5106 0.0000
vt 0.0141 0.8820 0.0000
vt 0.0141 0.7937 0.0000
vt 0.0141 0.7395 0.0000
vt 0.0141 0.6860 0.0000
vt 0.0141 0.6281 0.0000
vt 0.0141 0.5656 0.0000
vt 0.0141 0.5106 0.0000
vt 0.6848 0.8597 0.0000
vt 0.6509 0.8597 0.0000
vt 0.6235 0.8398 0.0000
vt 0.7226 0.8076 0.0000
vt 0.6848 0.7554 0.0000
vt 0.6235 0.7753 0.0000
vt 0.6130 0.8076 0.0000
vt 0.6509 0.7554 0.0000
vt 0.7122 0.7753 0.0000
vt 0.7122 0.8398 0.0000
vt 0.4357 0.9861 0.0000
vt 0.4144 0.9707 0.0000
vt 0.4062 0.9456 0.0000
vt 0.4833 0.9707 0.0000
vt 0.4833 0.9206 0.0000
vt 0.4357 0.9051 0.0000
vt 0.4144 0.9206 0.0000
vt 0.4620 0.9051 0.0000
vt 0.4914 0.9456 0.0000
vt 0.4620 0.9861 0.0000
vt 0.7835 0.0884 0.0000
vt 0.8507 0.0884 0.0000
vt 0.8507 0.1706 0.0000
vt 0.7835 0.1712 0.0000
vt 0.8876 0.0884 0.0000
vt 0.8876 0.1701 0.0000
vt 0.9325 0.0884 0.0000
vt 0.9325 0.1701 0.0000
vt 0.9710 0.0884 0.0000
vt 0.9710 0.1711 0.0000
vt 0.8507 0.2518 0.0000
vt 0.7835 0.2525 0.0000
vt 0.8876 0.2514 0.0000
vt 0.9325 0.2514 0.0000
vt 0.9710 0.2524 0.0000
vt 0.8507 0.3317 0.0000
vt 0.7835 0.3317 0.0000
vt 0.8876 0.3317 0.0000
vt 0.9325 0.3317 0.0000
vt 0.9710 0.3317 0.0000
vt 0.8507 0.4119 0.0000
vt 0.7835 0.4113 0.0000
vt 0.8876 0.4124 0.0000
vt 0.9325 0.4123 0.0000
vt 0.9710 0.4114 0.0000
vt 0.8507 0.4931 0.0000
vt 0.7835 0.4925 0.0000
vt 0.8876 0.4936 0.0000
vt 0.9325 0.4936 0.0000
vt 0.9710 0.4925 0.0000
vt 0.7835 0.0061 0.0000
vt 0.8507 0.0067 0.0000
vt 0.8876 0.0072 0.0000
vt 0.9325 0.0072 0.0000
vt 0.9710 0.0061 0.0000
vt 0.0142 0.9567 0.0000
vt 0.3374 0.9489 0.0000
vt 0.3388 0.9587 0.0000
vt 0.0160 0.9835 0.0000
vt 0.0167 0.9017 0.0000
vt 0.3389 0.9289 0.0000
vt 0.3367 0.9379 0.0000
vt 0.0142 0.9287 0.0000
vt 0.0147 0.9565 0.0000
vt 0.3376 0.9490 0.0000
vt 0.3391 0.9590 0.0000
vt 0.0163 0.9839 0.0000
vt 0.0163 0.9016 0.0000
vt 0.3384 0.9287 0.0000
vt 0.3366 0.9381 0.0000
vt 0.0135 0.9290 0.0000
vt 0.0147 0.9576 0.0000
vt 0.3376 0.9491 0.0000
vt 0.3385 0.9589 0.0000
vt 0.0170 0.9855 0.0000
vt 0.0170 0.9015 0.0000
vt 0.3388 0.9288 0.0000
vt 0.3368 0.9377 0.0000
vt 0.0147 0.9295 0.0000
# 268 texture coords

g TableLamp
usemtl 09___Default
s off
f 1/1/1 2/2/2 3/3/2 4/4/1 
f 1/5/1 4/6/1 5/7/3 6/8/3 
f 6/8/3 5/7/3 7/9/4 8/10/4 
f 8/10/4 7/9/4 9/11/5 10/12/5 
f 10/12/5 9/11/5 11/13/6 12/14/6 
f 12/14/6 11/13/6 13/15/7 14/16/7 
f 14/16/7 13/15/7 15/17/8 16/18/8 
f 16/18/8 15/17/8 17/19/9 18/20/9 
f 18/20/9 17/19/9 19/21/10 20/22/10 
f 20/22/10 19/21/10 21/23/11 22/24/11 
f 22/24/11 21/23/11 23/25/12 24/26/12 
f 24/26/12 23/25/12 25/27/13 26/28/13 
f 26/28/13 25/27/13 27/29/14 28/30/14 
f 28/30/14 27/29/14 29/31/15 30/32/15 
f 30/32/15 29/31/15 31/33/16 32/34/16 
f 32/34/16 31/33/16 33/35/17 34/36/17 
f 34/36/17 33/35/17 35/37/18 36/38/18 
f 36/38/18 35/37/18 3/3/2 2/2/2 
f 32/39/19 34/40/19 36/41/19 8/42/19 
f 1/43/19 8/42/19 36/41/19 2/44/19 
f 1/43/19 6/45/19 8/42/19 
f 16/46/19 32/39/19 8/42/19 12/47/19 
f 8/42/19 10/48/19 12/47/19 
f 12/47/19 14/49/19 16/46/19 
f 24/50/19 32/39/19 16/46/19 20/51/19 
f 16/46/19 18/52/19 20/51/19 
f 20/51/19 22/53/19 24/50/19 
f 28/54/19 32/39/19 24/50/19 26/55/19 
f 32/39/19 28/54/19 30/56/19 
f 37/57/20 38/58/20 4/59/20 3/60/20 
f 39/61/20 37/57/20 3/60/20 35/62/20 
f 40/63/20 39/61/20 35/62/20 33/64/20 
f 41/65/20 40/63/20 33/64/20 31/66/20 
f 42/67/20 41/65/20 31/66/20 29/68/20 
f 43/69/20 42/67/20 29/68/20 27/70/20 
f 44/71/20 43/69/20 27/70/20 25/72/20 
f 45/73/20 44/71/20 25/72/20 23/74/20 
f 46/75/20 45/73/20 23/74/20 21/76/20 
f 47/77/20 46/75/20 21/76/20 19/78/20 
f 48/79/20 47/77/20 19/78/20 17/80/20 
f 49/81/20 48/79/20 17/80/20 15/82/20 
f 50/83/20 49/81/20 15/82/20 13/84/20 
f 51/85/20 50/83/20 13/84/20 11/86/20 
f 52/87/20 51/85/20 11/86/20 9/88/20 
f 53/89/20 52/87/20 9/88/20 7/90/20 
f 54/91/20 53/89/20 7/90/20 5/92/20 
f 38/58/20 54/91/20 5/92/20 4/59/20 
f 38/93/21 37/94/22 55/95/23 
f 37/94/22 39/96/24 55/95/23 
f 39/96/24 40/97/25 55/95/23 
f 40/97/25 41/98/26 55/95/23 
f 41/98/26 42/99/27 55/95/23 
f 42/99/27 43/100/28 55/95/23 
f 43/100/28 44/101/29 55/95/23 
f 44/101/29 45/102/30 55/95/23 
f 45/103/30 46/104/31 55/95/23 
f 46/104/31 47/105/32 55/95/23 
f 47/105/32 48/106/33 55/95/23 
f 48/106/33 49/107/34 55/95/23 
f 49/107/34 50/108/35 55/95/23 
f 50/108/35 51/109/36 55/95/23 
f 51/109/36 52/110/37 55/95/23 
f 52/110/37 53/111/38 55/95/23 
f 53/111/38 54/112/39 55/95/23 
f 54/112/39 38/93/21 55/95/23 
f 56/113/40 57/114/41 58/115/42 59/116/43 
f 57/114/41 60/117/44 61/118/45 58/115/42 
f 62/119/46 61/118/45 60/117/44 63/120/47 
f 63/120/47 64/121/48 65/122/49 62/119/46 
f 64/121/48 66/123/50 67/124/51 65/122/49 
f 68/125/52 67/124/51 66/123/50 69/126/53 
f 59/116/43 58/115/42 70/127/54 71/128/55 
f 58/115/42 61/118/45 72/129/56 70/127/54 
f 73/130/57 72/129/56 61/118/45 62/119/46 
f 62/119/46 65/122/49 74/131/58 73/130/57 
f 65/122/49 67/124/51 75/132/59 74/131/58 
f 76/133/60 75/132/59 67/124/51 68/125/52 
f 71/128/55 70/127/54 77/134/61 78/135/62 
f 70/127/54 72/129/56 79/136/63 77/134/61 
f 80/137/64 79/136/63 72/129/56 73/130/57 
f 73/130/57 74/131/58 81/138/65 80/137/64 
f 74/131/58 75/132/59 82/139/66 81/138/65 
f 83/140/67 82/139/66 75/132/59 76/133/60 
f 78/135/62 77/134/61 84/141/68 85/142/69 
f 77/134/61 79/136/63 86/143/70 84/141/68 
f 87/144/71 86/143/70 79/136/63 80/137/64 
f 80/137/64 81/138/65 88/145/72 87/144/71 
f 81/138/65 82/139/66 89/146/73 88/145/72 
f 90/147/74 89/146/73 82/139/66 83/140/67 
f 85/142/69 84/141/68 91/148/75 92/149/76 
f 84/141/68 86/143/70 93/150/77 91/148/75 
f 94/151/78 93/150/77 86/143/70 87/144/71 
f 87/144/71 88/145/72 95/152/79 94/151/78 
f 88/145/72 89/146/73 96/153/80 95/152/79 
f 97/154/81 96/153/80 89/146/73 90/147/74 
f 92/149/76 91/148/75 98/155/82 99/156/83 
f 91/148/75 93/150/77 100/157/84 98/155/82 
f 101/158/85 100/157/84 93/150/77 94/151/78 
f 94/151/78 95/152/79 102/159/86 101/158/85 
f 95/152/79 96/153/80 103/160/87 102/159/86 
f 104/161/88 103/160/87 96/153/80 97/154/81 
f 99/156/83 98/155/82 105/162/89 106/163/90 
f 98/155/82 100/157/84 107/164/91 105/162/89 
f 108/165/92 107/164/91 100/157/84 101/158/85 
f 101/158/85 102/159/86 109/166/93 108/165/92 
f 102/159/86 103/160/87 110/167/94 109/166/93 
f 111/168/95 110/167/94 103/160/87 104/161/88 
f 106/163/90 105/162/89 112/169/96 113/170/97 
f 105/162/89 107/164/91 114/171/98 112/169/96 
f 115/172/99 114/171/98 107/164/91 108/165/92 
f 108/165/92 109/166/93 116/173/100 115/172/99 
f 109/166/93 110/167/94 117/174/101 116/173/100 
f 118/175/102 117/174/101 110/167/94 111/168/95 
f 113/170/97 112/169/96 119/176/103 120/177/104 
f 112/169/96 114/171/98 121/178/105 119/176/103 
f 122/179/106 121/178/105 114/171/98 115/172/99 
f 115/172/99 116/173/100 123/180/107 122/179/106 
f 116/173/100 117/174/101 124/181/108 123/180/107 
f 125/182/109 124/181/108 117/174/101 118/175/102 
f 120/183/104 119/184/103 57/114/41 56/113/40 
f 119/184/103 121/185/105 60/117/44 57/114/41 
f 63/120/47 60/117/44 121/185/105 122/186/106 
f 122/186/106 123/187/107 64/121/48 63/120/47 
f 123/187/107 124/188/108 66/123/50 64/121/48 
f 69/126/53 66/123/50 124/188/108 125/189/109 
f 83/190/20 76/191/20 68/192/20 97/193/110 
f 111/194/111 97/193/110 68/192/20 125/195/20 
f 68/192/20 69/196/111 125/195/20 
f 125/195/20 118/197/20 111/194/111 
f 111/194/111 104/198/111 97/193/110 
f 83/190/20 97/193/110 90/199/110 
f 113/200/19 120/201/19 56/202/19 99/203/19 
f 85/204/19 99/203/19 56/202/19 71/205/19 
f 56/202/19 59/206/19 71/205/19 
f 71/205/19 78/207/19 85/204/19 
f 85/204/19 92/208/19 99/203/19 
f 113/200/19 99/203/19 106/209/19 
f 126/210/112 127/211/113 128/212/114 129/213/115 
f 127/211/113 130/214/116 131/215/117 128/212/114 
f 130/214/116 132/216/118 133/217/119 131/215/117 
f 132/216/118 134/218/120 135/219/121 133/217/119 
f 129/213/115 128/212/114 136/220/122 137/221/123 
f 128/212/114 131/215/117 138/222/124 136/220/122 
f 131/215/117 133/217/119 139/223/125 138/222/124 
f 133/217/119 135/219/121 140/224/126 139/223/125 
f 137/221/123 136/220/122 141/225/127 142/226/128 
f 136/220/122 138/222/124 143/227/129 141/225/127 
f 138/222/124 139/223/125 144/228/130 143/227/129 
f 139/223/125 140/224/126 145/229/131 144/228/130 
f 142/226/128 141/225/127 146/230/132 147/231/133 
f 141/225/127 143/227/129 148/232/134 146/230/132 
f 143/227/129 144/228/130 149/233/135 148/232/134 
f 144/228/130 145/229/131 150/234/136 149/233/135 
f 147/231/133 146/230/132 151/235/137 152/236/138 
f 146/230/132 148/232/134 153/237/139 151/235/137 
f 148/232/134 149/233/135 154/238/140 153/237/139 
f 149/233/135 150/234/136 155/239/141 154/238/140 
f 152/240/138 151/241/137 127/211/113 126/210/112 
f 151/241/137 153/242/139 130/214/116 127/211/113 
f 153/242/139 154/243/140 132/216/118 130/214/116 
f 154/243/140 155/244/141 134/218/120 132/216/118 
f 145/229/142 140/224/142 135/219/142 155/244/143 
f 135/219/142 134/218/19 155/244/143 
f 145/229/142 155/244/143 150/234/143 
f 156/245/144 157/246/144 158/247/144 159/248/144 
f 159/249/145 158/250/145 160/251/145 161/252/145 
f 161/252/146 160/251/146 157/246/146 156/245/146 
f 162/253/147 163/254/147 164/255/147 165/256/147 
f 165/257/148 164/258/149 166/259/149 167/260/148 
f 167/260/150 166/259/151 163/254/150 162/253/150 
f 168/261/152 169/262/152 170/263/152 171/264/152 
f 171/265/153 170/266/154 172/267/154 173/268/153 
f 173/268/155 172/267/155 169/262/155 168/261/155 
# 139 polygons - 34 triangles

